#N canvas 1177 259 574 277 10;
#X obj 106 29 udpreceive 5051;
#X obj 430 86 tgl 15 0 empty empty empty 17 7 0 10 -262144 -1 -1 1
1;
#X msg 378 38 disconnect;
#X obj 362 86 udpsend;
#X msg 386 61 connect momo 5051;
#X text 25 28 pi@momo;
#X text 24 9 @server;
#X obj 106 50 unpackOSC;
#X obj 106 119 packOSC;
#X obj 153 94 packOSC;
#X obj 440 193 tgl 15 0 empty empty empty 17 7 0 10 -262144 -1 -1 1
1;
#X msg 388 138 disconnect;
#X obj 372 193 udpsend;
#X obj 106 180 unpackOSC;
#X obj 106 246 packOSC;
#X obj 153 223 packOSC;
#X obj 106 159 udpreceive 5052;
#X text 25 158 pi@mosso;
#X msg 396 161 connect mosso 5052;
#X obj 106 202 routeOSC /0 /1;
#X obj 106 71 routeOSC /0 /1;
#X connect 0 0 7 0;
#X connect 2 0 3 0;
#X connect 3 0 1 0;
#X connect 4 0 3 0;
#X connect 7 0 20 0;
#X connect 8 0 3 0;
#X connect 9 0 12 0;
#X connect 11 0 12 0;
#X connect 12 0 10 0;
#X connect 13 0 19 0;
#X connect 14 0 3 0;
#X connect 15 0 12 0;
#X connect 16 0 13 0;
#X connect 18 0 12 0;
#X connect 19 0 14 0;
#X connect 19 1 15 0;
#X connect 20 0 8 0;
#X connect 20 1 9 0;
